<?xml version="1.0" encoding="UTF-8"?>
<svg version="1.1" viewBox="0 0 1600 1400" width="1280" height="1280" xmlns="http://www.w3.org/2000/svg">
<path transform="translate(723 4.7)" d="m0 0h19.8c1.43-0.01 1.43-0.01 2.88-0.01h5.8c17.9-0.01 35.8-0.01 53.8 0 16.4 0 32.8-0.01 49.2-0.03 16.9-0.02 33.8-0.03 50.8-0.02 9.46 0 18.9 0 28.4-0.02 8.02-0.01 16-0.01 24.1 0 4.09 0.01 8.17 0.01 12.3 0 3.74-0.01 7.48-0.01 11.2 0 2.01 0.01 4.01 0 6.01-0.01 1.17 0 2.35 0.01 3.56 0.02h3.09c0.8 0.12 1.59 0.24 2.41 0.37 2.57 3.87 2.23 6.97 2.15 11.4-0.01 1.37-0.01 1.37-0.02 2.77-0.03 3.26-0.08 6.53-0.13 9.79-0.03 1.92-0.05 3.84-0.08 5.77-0.08 6.7-0.18 13.4-0.28 20.1-0.52 35.7-0.73 71.4-0.7 107v3.21c0.01 12.9 0.03 25.8 0.06 38.7 1.89 0.03 3.79 0.05 5.69 0.06 1.58 0.02 1.58 0.02 3.19 0.04 3.36-0.03 6.66-0.3 10-0.59 8.09-0.65 16.1-0.66 24.2-0.67 1.68 0 3.37-0.01 5.05-0.01 4.52-0.02 9.05-0.02 13.6-0.03 2.83 0 5.66 0 8.49-0.01 8.86-0.01 17.7-0.02 26.6-0.03 10.2 0 20.4-0.02 30.7-0.05 7.92-0.02 15.8-0.03 23.8-0.03 4.72 0 9.45-0.01 14.2-0.03 4.43-0.01 8.86-0.01 13.3-0.01 1.63 0.01 3.26 0 4.88-0.01 2.22-0.01 4.44-0.01 6.65 0h3.76c3.01 0.37 3.01 0.37 4.91 1.62 1.39 2.22 1.43 3.5 1.35 6.1-0.03 0.9-0.06 1.79-0.09 2.71-0.23 4.22-0.53 8.44-0.86 12.7-1.39 17.9-1.6 35.7-1.57 53.7v12.4c-0.01 6.91 0 13.8 0.01 20.7 0.01 7.98 0 16-0.01 23.9-0.01 6.91-0.01 13.8 0 20.7v12.3c-0.01 3.84-0.01 7.67 0 11.5 0.01 1.41 0.01 2.81 0 4.22 0 1.91 0 3.83 0.01 5.74 0 1.07 0.01 2.14 0.01 3.25 0.25 2.79 0.82 4.38 2.25 6.76l1 2c1.09-0.21 1.09-0.21 2.2-0.43 9.71-1.7 19.1-1.85 29-1.81 1.79 0 3.58 0 5.37-0.01 4.83 0 9.66 0.01 14.5 0.02 5.06 0.01 10.1 0 15.2 0 8.48 0 17 0.01 25.4 0.03 9.81 0.01 19.6 0.02 29.4 0.02 10.4 0 20.9 0 31.4 0.01 3.01 0 6.02 0.01 9.04 0.01 4.72 0 9.44 0 14.2 0.01 1.74 0.01 3.48 0.01 5.21 0.01 2.36 0 4.72 0 7.09 0.01 0.69 0 1.38 0 2.1-0.01 4.73 0.03 4.73 0.03 6.96 1.14 0.02 23.6 0.04 47.1 0.05 70.7 0 10.9 0.01 21.9 0.02 32.8 0.01 9.53 0.02 19.1 0.02 28.6 0 5.05 0.01 10.1 0.01 15.2 0.01 4.75 0.01 9.5 0.01 14.2 0 1.74 0 3.49 0.01 5.24v7.13c0 0.7 0 1.4 0.01 2.12-0.02 4.76-0.02 4.76-1.13 6.99-0.07 2.21-0.09 4.42-0.06 6.63 0 1.19 0.01 2.37 0.02 3.6 0.01 0.91 0.03 1.83 0.04 2.77 1.53 0.01 1.53 0.01 3.08 0.01 24.8 0.06 49.5 0.13 74.3 0.23 12 0.04 23.9 0.08 35.9 0.11 10.4 0.02 20.9 0.06 31.3 0.1 5.53 0.03 11 0.04 16.6 0.05 5.19 0.01 10.4 0.03 15.6 0.06 1.92 0.01 3.83 0.01 5.74 0.01 2.6 0 5.2 0.01 7.8 0.03 0.76 0 1.53-0.01 2.32-0.01 2.1 0.03 2.1 0.03 5.44 0.41 2.19 3.29 2.23 4.1 2.13 7.89-0.02 1.01-0.04 2.02-0.06 3.06-0.04 1.66-0.04 1.66-0.09 3.36-0.03 1.18-0.05 2.35-0.08 3.56-0.07 3.25-0.15 6.5-0.22 9.74-0.16 6.38-0.27 12.8-0.38 19.1-0.02 0.74-0.03 1.48-0.05 2.24-0.32 17.4-0.36 34.7-0.35 52v4.07c0 10.8 0.02 21.5 0.04 32.3 0.02 21.3 0.04 42.6 0.06 64.6h-193v-2h-3v2h-3l1 3c0.09 1.38 0.12 2.77 0.12 4.15 0 0.85 0.01 1.7 0.01 2.58 0 0.94-0.01 1.87-0.01 2.84v3.02c0.01 3.38 0 6.76 0 10.1v7.3 15.9c-0.01 7.89-0.01 15.8-0.01 23.7 0 13.3 0 26.5-0.01 39.8 0 13.1-0.01 26.3-0.01 39.4v2.48 12.4c0 29.4-0.01 58.8-0.02 88.2-0.01 28.5-0.01 57.1-0.02 85.6v5.38 43.7c-0.01 67.5-0.03 135-0.05 202-131-0.33-263-0.66-398-1-2.17-4.33-2.35-7.54-2.41-12.2-0.02-0.85-0.04-1.69-0.06-2.56-0.06-2.84-0.1-5.68-0.15-8.52-0.04-2.06-0.07-4.12-0.11-6.17-0.45-25.6-0.42-51.2-0.41-76.8v-15.4-2.25-4.54c0-14 0-28.1 0.01-42.1v-35.6c-0.01-14-0.01-28-0.01-41.9v-4.53-2.25c0.01-5.07 0-10.1 0-15.2-0.02-40.2 0.38-80.4 1.1-121 0.02-1.44 0.04-2.87 0.04-4.31-129 0.33-259 0.66-392 1-0.83 10.9-0.83 10.9-1.14 21.7 0 0.66-0.01 1.32-0.01 1.99-0.01 2.16-0.01 4.31-0.01 6.46-0.01 1.58-0.01 3.15-0.02 4.73-0.01 4.3-0.02 8.6-0.02 12.9-0.01 4.72-0.02 9.43-0.04 14.2-0.02 9.15-0.04 18.3-0.06 27.4-0.02 10.6-0.05 21.2-0.08 31.8l-0.18 83.8c-0.15 62.4-0.29 125-0.44 189h-397c-0.91-2.73-1.13-4.3-1.13-7.11 0-0.84 0-1.68-0.01-2.55 0.01-0.93 0.01-1.86 0.01-2.81v-2.99c-0.01-3.35 0-6.69 0-10v-7.22c-0.01-5.25-0.01-10.5 0-15.8 0-7.81 0-15.6-0.01-23.4v-41.8c0-12.2 0.01-24.4 0-36.6v-2.45-9.85c0-30.8 0-61.6 0.01-92.4v-82.2c-0.01-30.8-0.01-61.5-0.01-92.2v-9.83-2.45c0.01-12.2 0-24.4 0-36.6v-41.6c0.01-7.76 0.01-15.5 0-23.3 0-5.79 0-11.6 0.01-17.4v-7.04c-0.01-3.18 0-6.37 0-9.55 0-0.92 0-1.84-0.01-2.79 0.01-0.85 0.01-1.7 0.01-2.57v-2.2c0.16-2.79 0.67-5.54 1.13-8.29h-197c-3.12-9.34-2.15-20.6-2.14-30.3v-3.9c0-3.55 0-7.1 0.01-10.7 0-2.26 0.01-4.52 0.01-6.78 0.03-29.4 0.21-58.8 0.44-88.3 0.04-4.93 0.07-9.86 0.1-14.8 0.04-5.86 0.08-11.7 0.14-17.6 0.01-2.19 0.03-4.37 0.04-6.56 0.02-3.01 0.05-6.01 0.08-9.02 0-0.88 0-1.77 0.01-2.68 0.08-6.09 0.08-6.09 2.31-9.43 3.02-0.37 3.02-0.37 7-0.36 0.72 0 1.45 0 2.2-0.01 2.46 0 4.91 0.02 7.36 0.03h5.27c4.77 0 9.54 0.02 14.3 0.04 4.99 0.02 9.97 0.02 15 0.02 9.45 0.01 18.9 0.04 28.3 0.07 10.8 0.03 21.5 0.05 32.2 0.06 22.1 0.03 44.2 0.09 66.3 0.15v2h16c0.01-2.47 0.02-4.95 0.03-7.5 0.1-23.3 0.2-46.6 0.31-69.8 0.05-12 0.11-23.9 0.16-35.9 0.04-10.4 0.08-20.9 0.13-31.3 0.03-5.53 0.06-11 0.08-16.6 0.02-5.19 0.04-10.4 0.07-15.6 0.01-1.92 0.02-3.83 0.02-5.74 0.01-2.6 0.02-5.2 0.04-7.8v-2.32c0.04-5.21 0.04-5.21 1.16-7.44 22.7-0.02 45.4-0.04 68.1-0.05 10.5 0 21.1-0.01 31.6-0.02 9.19-0.01 18.4-0.02 27.6-0.02 4.87 0 9.74-0.01 14.6-0.01 4.59-0.01 9.17-0.01 13.8-0.01 1.68 0 3.36 0 5.04-0.01h6.89 3.9c3.25 0.11 6.27 0.54 9.47 1.12 2.43 0.09 4.87 0.13 7.31 0.13 1.85 0 1.85 0 3.74 0.01 2.84 0.2 2.84 0.2 3.95-1.14 0.1-2.51 0.14-4.99 0.14-7.5 0.01-0.8 0.01-1.59 0.01-2.41 0.01-2.68 0.02-5.37 0.02-8.05 0.01-1.92 0.01-3.84 0.02-5.75 0.02-4.14 0.03-8.28 0.04-12.4 0.01-6.54 0.04-13.1 0.06-19.6 0.07-18.6 0.13-37.2 0.18-55.8 0.03-10.3 0.07-20.5 0.11-30.8 0.03-6.51 0.05-13 0.06-19.5 0.01-4.05 0.02-8.09 0.04-12.1 0.01-1.88 0.01-3.76 0.02-5.64 0-2.55 0.01-5.11 0.03-7.67-0.01-0.75-0.01-1.5-0.01-2.27 0.04-3.71 0.16-5.31 2.28-8.49 2.55-0.37 2.55-0.37 5.83-0.37 1.25 0 2.49-0.01 3.77-0.01l4.17 0.03c1.45 0 2.91-0.01 4.36-0.01 3.97-0.01 7.94 0.01 11.9 0.03 4.17 0.01 8.34 0.01 12.5 0.01 7.03 0 14.1 0.02 21.1 0.04 8.95 0.03 17.9 0.04 26.8 0.04 7.76 0.01 15.5 0.02 23.3 0.04h7.37c16 0.03 31.9 0.07 47.8 0.86 9 0.42 18 0.39 27 0.34 0-0.98 0-1.97-0.01-2.99-0.02-24-0.03-47.9-0.04-71.9l-0.03-34.8c-0.01-10.1-0.01-20.2-0.02-30.3 0-5.35 0-10.7-0.01-16 0-5.03-0.01-10.1-0.01-15.1v-5.54c-0.01-2.53-0.01-5.05 0-7.57-0.01-0.73-0.01-1.47-0.01-2.23 0.02-6.7 0.02-6.7 1.13-9.54 3.16-1.58 6.61-1.36 10.1-1.52 0.87-0.04 1.73-0.09 2.62-0.13 2.97-0.14 5.93-0.27 8.9-0.39 1.06-0.05 2.12-0.09 3.21-0.14 32.6-1.31 65.3-1.13 98-1.12zm-96.8 2.3v1h5v-1h-5z" fill="#FCFDFE"/>
<path transform="translate(1395,843)" d="m0 0h1v488h-1v-488z" fill="#000100"/>
<path transform="translate(602,1012)" d="m0 0h1l1 379-2 1v-380z" fill="#000100"/>
<path transform="translate(1195,246)" d="m0 0h1v151h-1v-151z" fill="#000100"/>
<path transform="translate(1395,450)" d="m0 0h1v73h-1v-73z" fill="#000100"/>
<path transform="translate(997,164)" d="m0 0h1v37h-1v-37z" fill="#000100"/>
<path transform="translate(997,110)" d="m0 0h1v24h-1v-24z" fill="#000100"/>
<path transform="translate(998,50)" d="m0 0h1v20h-1v-20z" fill="#000100"/>
<path transform="translate(1395,556)" d="m0 0h1v19h-1v-19z" fill="#000100"/>
<path transform="translate(998,29)" d="m0 0h1v17h-1v-17z" fill="#000100"/>
<path transform="translate(1395,1357)" d="m0 0h1v11h-1v-11z" fill="#000100"/>
<path transform="translate(1395,1371)" d="m0 0h1v10h-1v-10z" fill="#000100"/>
<path transform="translate(603 1e3)" d="m0 0h1v5h-1v-5z" fill="#000100"/>
<path transform="translate(1593,599)" d="m0 0h2l-1 2-1-2z" fill="#1E2019"/>
</svg>
